<svg xmlns="http://www.w3.org/2000/svg" viewBox="0 0 32 32" width="16" height="16">
  <path d="M15.63 20.91c-3.92 2.05-7.65 3.96-11.35 6.02-1.02.56-1.85.35-2.13-.72-.13-.52-.15-1.08-.15-1.63-.01-5.88 0-11.76-.01-17.64 0-1.3.68-1.95 1.99-1.95 8.93-.03 17.86-.02 26.79-.02 1.33 0 1.98.66 1.97 1.99-.02 5.82-.02 11.64 0 17.46 0 .6-.02 1.22-.15 1.8-.28 1.07-1.1 1.28-2.12.72-3.7-2.05-7.44-3.97-11.15-5.99-.28-.15-.55-.32-.83-.47-.12-.06-.27-.06-.39 0-.44.23-.86.48-1.28.72l-1.19.71z" fill="#D82C20"/>
  <path d="M16.29 9.33c-.18-.05-.38-.05-.57 0l-8.5 2.52c-.2.06-.2.33 0 .39l8.5 2.52c.18.05.38.05.57 0l8.5-2.52c.2-.06.2-.33 0-.39l-8.5-2.52zm0 6.49c-.18-.05-.38-.05-.57 0l-8.5 2.52c-.2.06-.2.33 0 .39l8.5 2.52c.18.05.38.05.57 0l8.5-2.52c.2-.06.2-.33 0-.39l-8.5-2.52zm0-13c-.18-.05-.38-.05-.57 0l-8.5 2.52c-.2.06-.2.33 0 .39l8.5 2.52c.18.05.38.05.57 0l8.5-2.52c.2-.06.2-.33 0-.39l-8.5-2.52z" fill="#A41E11"/>
</svg>
